ffmpeg version N-102852-g758e2da289 Copyright (c) 2000-2021 the FFmpeg developers
  built with gcc 7 (Ubuntu 7.5.0-3ubuntu1~18.04)
  configuration: --prefix=/home/aleksandr/ffmpeg_debug_build --pkg-config-flags=--static --extra-cflags=-I/home/aleksandr/ffmpeg_debug_build/include --extra-ldflags=-L/home/aleksandr/ffmpeg_debug_build/lib --extra-libs='-lpthread -lm' --bindir=/home/aleksandr/bin_debug --enable-gpl --enable-libass --enable-libfdk-aac --enable-libfreetype --enable-libmp3lame --enable-libopus --enable-libtheora --enable-libvorbis --enable-libvpx --enable-libx264 --enable-libx265 --enable-nonfree
  libavutil      57.  0.100 / 57.  0.100
  libavcodec     59.  3.101 / 59.  3.101
  libavformat    59.  4.100 / 59.  4.100
  libavdevice    59.  0.100 / 59.  0.100
  libavfilter     8.  0.103 /  8.  0.103
  libswscale      6.  0.100 /  6.  0.100
  libswresample   4.  0.100 /  4.  0.100
  libpostproc    56.  0.100 / 56.  0.100
[mxf @ 0x5621a4973100] invalid KAGSize 0 - guessing 512
[mxf @ 0x5621a4973100] invalid KAGSize 0 - guessing 512
[mxf @ 0x5621a4973100] wrapping of stream 0 is unknown
[mxf @ 0x5621a4973100] wrapping of stream 1 is unknown
[mxf @ 0x5621a4973100] wrapping of stream 2 is unknown
[mxf @ 0x5621a4973100] wrapping of stream 3 is unknown
[mxf @ 0x5621a4973100] wrapping of stream 4 is unknown
Guessed Channel Layout for Input Stream #0.1 : stereo
Guessed Channel Layout for Input Stream #0.2 : stereo
Guessed Channel Layout for Input Stream #0.3 : stereo
Guessed Channel Layout for Input Stream #0.4 : stereo
Input #0, mxf, from '../.././Samples/C0023S01.mxf':
  Metadata:
    operational_pattern_ul: 060e2b34.04010101.0e060201.40010900
    uid             : 89721e00-1139-05c1-00f1-080046020222
    generation_uid  : 89721e00-1139-05c2-00f1-080046020222
    company_name    : SONY
    product_name    : Opt 
    product_version : 1.40
    product_uid     : 060e2b34-0401-0103-0e06-012002010200
    modification_date: 2006-06-25T23:09:48.000000Z
    material_package_umid: 0x060A2B340101010501010D4313FF0000B36F1E00113905A508004602022200F1
    timecode        : 01:43:48:21
  Duration: 00:00:03.80, start: 0.000000, bitrate: 2483 kb/s
  Stream #0:0: Video: mpeg4, yuv420p(progressive), 352x288 [SAR 16:11 DAR 16:9], 25 fps, 25 tbr, 25 tbn
    Metadata:
      file_package_umid: 0x060A2B340101010501010D4313FF0000B46F1E00113905A508004602022200F1
  Stream #0:1: Audio: pcm_alaw, 8000 Hz, stereo, s16, 128 kb/s
    Metadata:
      file_package_umid: 0x060A2B340101010501010D4313FF0000B46F1E00113905A508004602022200F1
  Stream #0:2: Audio: pcm_alaw, 8000 Hz, stereo, s16, 128 kb/s
    Metadata:
      file_package_umid: 0x060A2B340101010501010D4313FF0000B46F1E00113905A508004602022200F1
  Stream #0:3: Audio: pcm_alaw, 8000 Hz, stereo, s16, 128 kb/s
    Metadata:
      file_package_umid: 0x060A2B340101010501010D4313FF0000B46F1E00113905A508004602022200F1
  Stream #0:4: Audio: pcm_alaw, 8000 Hz, stereo, s16, 128 kb/s
    Metadata:
      file_package_umid: 0x060A2B340101010501010D4313FF0000B46F1E00113905A508004602022200F1
File '/home/aleksandr/Debug-release_tests/Debug/Samples/C0023S01.mxf_tc/output_std5.mov' already exists. Overwrite? [y/N] Command terminated by signal 2
	Command being timed: "/home/aleksandr/bin_debug/ffmpeg -i ../.././Samples/C0023S01.mxf -c:v libx264 -f mov /home/aleksandr/Debug-release_tests/Debug/Samples/C0023S01.mxf_tc/output_std5.mov"
	User time (seconds): 0.00
	System time (seconds): 0.01
	Percent of CPU this job got: 0%
	Elapsed (wall clock) time (h:mm:ss or m:ss): 0:04.03
	Average shared text size (kbytes): 0
	Average unshared data size (kbytes): 0
	Average stack size (kbytes): 0
	Average total size (kbytes): 0
	Maximum resident set size (kbytes): 20212
	Average resident set size (kbytes): 0
	Major (requiring I/O) page faults: 0
	Minor (reclaiming a frame) page faults: 1712
	Voluntary context switches: 2
	Involuntary context switches: 0
	Swaps: 0
	File system inputs: 0
	File system outputs: 8
	Socket messages sent: 0
	Socket messages received: 0
	Signals delivered: 0
	Page size (bytes): 4096
	Exit status: 0
